# xmcd
#
# Track frame offsets: 
#        150
#        29991
#        47006
#        73262
#        94554
#        123349
#        160178
#        178811
#
# Disc length: 2690 seconds
#
# Revision: 1
# Processed by: cddbd v1.5.2PL0 Copyright (c) Steve Scherf et al.
# Submitted via: ExactAudioCopy v1.0b3
#
DISCID=6f0a8008
DTITLE=Michel Sardaby - Going places
DYEAR=1989
DGENRE=Jazz
TTITLE0=Going places
TTITLE1=Mumbo-Jumbo
TTITLE2=Yearning
TTITLE3=Sugar loaf
TTITLE4=Drum tantrum
TTITLE5=How deep is the ocean ?
TTITLE6=Street smart
TTITLE7=Lotus blossom
EXTD=YEAR: 1989
EXTT0=
EXTT1=
EXTT2=
EXTT3=
EXTT4=
EXTT5=
EXTT6=
EXTT7=
PLAYORDER=
